<?xml version="1.0" encoding="utf-8"?>
<!-- Generator: Adobe Illustrator 25.0.0, SVG Export Plug-In . SVG Version: 6.00 Build 0)  -->
<svg version="1.1" id="레이어_1" xmlns="http://www.w3.org/2000/svg" xmlns:xlink="http://www.w3.org/1999/xlink" x="0px"
	 y="0px" viewBox="0 0 400 400" style="enable-background:new 0 0 400 400;" xml:space="preserve">
<style type="text/css">
	.st0{fill:#FFFFFF;}
</style>
<circle id="타원_376" class="st0" cx="200" cy="200" r="197.5"/>
<g id="그룹_2301" transform="translate(0 0)">
	<path id="패스_1051" d="M200,71.6c76.8,0,139.1,49.1,139.1,109.7S276.8,291,200,291c-8.3,0-16.5-0.6-24.7-1.7
		c-8,5.6-54.4,38.2-58.8,38.9c-1.1,0.4-2.3,0.3-3.3-0.2c-1.5-0.9-1.3-3.3-1.3-3.3c0.5-3.1,12-43.1,14.2-50.4
		c-39.2-19.4-65.2-53.8-65.2-92.9C60.9,120.7,123.1,71.6,200,71.6z M275.7,184c0-9.3-7.5-16.8-16.8-16.8c-9.3,0-16.8,7.5-16.8,16.8
		c0,9.3,7.5,16.8,16.8,16.8l0,0C268.1,200.8,275.7,193.3,275.7,184L275.7,184z M216.8,184c0-9.3-7.5-16.8-16.8-16.8
		s-16.8,7.5-16.8,16.8c0,9.3,7.5,16.8,16.8,16.8l0,0C209.3,200.8,216.8,193.3,216.8,184z M157.9,184c0-9.3-7.5-16.8-16.8-16.8
		c-9.3,0-16.8,7.5-16.8,16.8c0,9.3,7.5,16.8,16.8,16.8l0,0C150.4,200.8,157.9,193.3,157.9,184z"/>
</g>
</svg>
